<?xml version="1.0" standalone="no"?>
<!DOCTYPE svg PUBLIC "-//W3C//DTD SVG 20010904//EN"
 "http://www.w3.org/TR/2001/REC-SVG-20010904/DTD/svg10.dtd">
<svg version="1.0" xmlns="http://www.w3.org/2000/svg"
 width="397.000000pt" height="185.000000pt" viewBox="0 0 397.000000 185.000000"
 preserveAspectRatio="xMidYMid meet">

<g transform="translate(0.000000,185.000000) scale(0.100000,-0.100000)"
fill="#000000" stroke="none">
<path d="M2443 1623 c9 -2 23 -2 30 0 6 3 -1 5 -18 5 -16 0 -22 -2 -12 -5z"/>
<path d="M2515 1611 c37 -11 198 -21 170 -11 -11 4 -60 10 -110 13 -58 4 -79
3 -60 -2z"/>
<path d="M2726 1576 c10 -8 21 -12 24 -10 5 6 -21 24 -34 24 -6 0 -1 -6 10
-14z"/>
<path d="M2571 1536 c2 -2 18 -6 34 -10 22 -5 26 -4 15 4 -14 9 -59 15 -49 6z"/>
<path d="M2427 1502 c-16 -18 -15 -18 13 -14 16 2 50 -3 76 -12 68 -23 67 -20
-1 14 -71 35 -68 35 -88 12z"/>
<path d="M2654 1505 c11 -8 24 -15 29 -15 4 0 6 -4 2 -9 -3 -5 0 -13 6 -17 8
-4 9 -3 5 4 -9 15 -1 15 25 2 10 -6 19 -8 19 -6 0 3 -24 17 -52 31 -29 14 -44
19 -34 10z"/>
<path d="M2305 1450 c-4 -6 -11 -7 -17 -4 -7 4 -8 2 -4 -5 6 -9 12 -9 24 1 10
7 19 14 21 15 2 2 -1 3 -7 3 -6 0 -14 -5 -17 -10z"/>
<path d="M2753 1445 c0 -7 7 -11 15 -7 11 4 13 1 7 -8 -5 -9 -4 -11 3 -6 16
10 15 14 -6 25 -14 7 -19 6 -19 -4z"/>
<path d="M2794 1419 c-3 -5 -2 -8 3 -7 4 1 21 -6 36 -16 15 -10 29 -17 31 -15
2 2 -12 14 -30 26 -19 12 -36 18 -40 12z"/>
<path d="M2188 1406 c-19 -14 -23 -26 -10 -26 4 0 13 9 20 20 14 23 13 24 -10
6z"/>
<path d="M2260 1410 c0 -5 5 -10 11 -10 6 0 49 -25 95 -55 46 -31 92 -58 101
-62 20 -6 -93 71 -162 112 -25 14 -45 21 -45 15z"/>
<path d="M2750 1390 c0 -5 7 -10 16 -10 8 0 12 5 9 10 -3 6 -10 10 -16 10 -5
0 -9 -4 -9 -10z"/>
<path d="M2082 1358 c-24 -12 -25 -29 -2 -36 8 -3 10 0 5 7 -4 7 1 18 11 26
22 17 18 18 -14 3z"/>
<path d="M2210 1366 c0 -2 8 -10 18 -17 15 -13 16 -12 3 4 -13 16 -21 21 -21
13z"/>
<path d="M2900 1365 c0 -7 101 -57 106 -53 2 2 -21 16 -51 31 -30 15 -55 25
-55 22z"/>
<path d="M2001 1324 c-18 -8 -31 -17 -28 -20 5 -6 67 23 67 31 0 6 3 7 -39
-11z"/>
<path d="M2250 1335 c0 -8 71 -58 75 -53 3 2 -13 16 -35 31 -22 14 -40 24 -40
22z"/>
<path d="M3438 1333 c7 -3 16 -2 19 1 4 3 -2 6 -13 5 -11 0 -14 -3 -6 -6z"/>
<path d="M2484 1321 c7 -11 46 -35 46 -28 0 3 -12 12 -26 22 -15 9 -23 12 -20
6z"/>
<path d="M2030 1306 c0 -2 7 -7 16 -10 8 -3 12 -2 9 4 -6 10 -25 14 -25 6z"/>
<path d="M1945 1290 c-3 -5 2 -10 11 -10 10 0 34 -15 54 -32 l35 -33 -30 33
c-37 41 -61 56 -70 42z"/>
<path d="M2560 1275 c14 -8 30 -14 35 -14 6 0 -1 6 -15 14 -14 8 -29 14 -35
14 -5 0 1 -6 15 -14z"/>
<path d="M2370 1261 c19 -10 69 -26 110 -36 114 -27 260 -76 260 -88 0 -6 3
-7 6 -4 4 3 16 2 28 -4 17 -7 16 -6 -3 8 -38 28 -158 71 -246 89 -44 9 -102
25 -130 35 -62 24 -70 24 -25 0z"/>
<path d="M3620 1253 c13 -18 25 -33 27 -33 8 0 -17 38 -33 51 -11 9 -9 2 6
-18z"/>
<path d="M3310 1266 c0 -2 7 -7 16 -10 8 -3 12 -2 9 4 -6 10 -25 14 -25 6z"/>
<path d="M1800 1231 c-36 -15 -78 -35 -94 -44 l-29 -16 36 2 c22 1 35 6 33 13
-6 15 89 54 103 43 6 -5 9 -6 6 -3 -3 4 0 13 6 21 15 17 15 17 -61 -16z"/>
<path d="M2650 1235 c25 -13 50 -24 55 -24 6 0 -10 11 -35 24 -25 13 -49 24
-55 24 -5 0 10 -11 35 -24z"/>
<path d="M2162 1208 c20 -21 43 -38 50 -38 7 0 4 6 -7 12 -11 6 -34 22 -50 37
-17 14 -14 9 7 -11z"/>
<path d="M3360 1236 c0 -2 14 -14 30 -26 17 -12 30 -19 30 -16 0 2 -13 14 -30
26 -16 12 -30 19 -30 16z"/>
<path d="M1800 1204 l-25 -15 25 7 c28 7 35 12 29 18 -2 2 -15 -2 -29 -10z"/>
<path d="M2070 1190 c26 -19 109 -60 122 -60 7 0 -16 14 -52 32 -77 38 -90 43
-70 28z"/>
<path d="M3160 1167 c0 -3 12 -12 26 -22 15 -9 23 -12 20 -6 -7 11 -46 35 -46
28z"/>
<path d="M1555 1119 c-44 -23 -102 -53 -130 -67 -27 -14 -59 -27 -69 -29 -42
-7 -127 -35 -122 -40 2 -3 30 3 61 12 47 13 59 14 73 3 10 -8 13 -8 9 -1 -9
14 47 50 91 58 25 4 41 0 65 -18 18 -12 66 -38 107 -57 101 -46 133 -71 159
-122 16 -33 21 -38 21 -20 0 42 -73 106 -168 148 -105 46 -160 83 -141 95 8 4
18 4 23 -1 5 -5 16 -5 27 0 14 8 23 3 43 -21 14 -17 26 -27 26 -22 0 4 -12 21
-25 36 -21 23 -28 26 -45 17 -14 -8 -20 -8 -20 0 0 16 43 29 63 18 12 -6 17
-5 17 6 0 8 7 22 16 30 25 25 4 19 -81 -25z"/>
<path d="M1770 1156 c0 -2 8 -10 18 -17 15 -13 16 -12 3 4 -13 16 -21 21 -21
13z"/>
<path d="M3672 1130 c0 -19 2 -27 5 -17 2 9 2 25 0 35 -3 9 -5 1 -5 -18z"/>
<path d="M2260 1109 c90 -36 210 -107 210 -124 0 -6 -17 -17 -37 -24 -21 -8
-57 -22 -80 -33 -23 -11 -47 -16 -54 -12 -7 4 -9 3 -6 -3 4 -5 -12 -16 -35
-23 -37 -13 -41 -12 -55 6 -7 10 -11 29 -8 42 3 14 1 22 -7 21 -22 -1 -43 -14
-44 -26 -1 -7 -2 -19 -2 -25 -1 -7 -32 17 -69 53 -80 78 -145 124 -190 133
-18 4 -35 12 -38 17 -4 5 -11 9 -18 9 -19 0 24 -25 76 -44 33 -13 75 -44 133
-100 l85 -81 -14 -34 c-17 -40 -8 -92 21 -124 11 -12 17 -28 15 -34 -3 -7 0
-13 5 -13 5 0 12 6 15 14 3 7 23 16 44 20 21 3 58 19 82 36 40 27 48 29 102
23 65 -6 133 13 164 47 17 19 18 63 1 101 -5 11 3 21 27 34 32 17 36 17 58 2
13 -10 28 -17 34 -17 5 1 -2 8 -17 16 -35 18 -35 24 0 47 15 11 35 30 45 43
32 42 -2 38 -107 -15 l-99 -50 -41 28 c-54 37 -183 99 -221 106 -16 3 -5 -4
25 -16z m330 -104 c0 -3 -37 -23 -82 -46 -45 -23 -98 -51 -117 -63 -101 -62
-210 -84 -231 -47 -7 15 -7 19 5 17 8 -1 18 -5 21 -9 24 -23 81 -4 279 93 136
66 125 62 125 55z m-30 -130 c0 -27 -24 -49 -73 -70 -46 -19 -81 -19 -100 0
-8 8 -18 11 -22 7 -5 -4 -5 -1 -1 6 4 7 12 10 17 7 5 -4 9 -2 9 3 0 6 12 13
27 17 15 3 47 25 72 47 41 39 45 40 57 23 8 -11 14 -29 14 -40z"/>
<path d="M2800 1117 c0 -2 14 -16 31 -33 16 -16 28 -22 24 -14 -5 13 -55 56
-55 47z"/>
<path d="M2400 1095 c0 -7 61 -37 66 -33 2 3 -12 12 -31 21 -19 9 -35 15 -35
12z"/>
<path d="M3255 1080 c10 -11 20 -20 23 -20 3 0 -3 9 -13 20 -10 11 -20 20 -23
20 -3 0 3 -9 13 -20z"/>
<path d="M3550 1086 c0 -2 8 -10 18 -17 15 -13 16 -12 3 4 -13 16 -21 21 -21
13z"/>
<path d="M2870 1044 c0 -6 7 -19 16 -30 14 -18 14 -18 3 6 -14 31 -19 36 -19
24z"/>
<path d="M3611 1035 c13 -23 49 -67 49 -59 0 5 -13 23 -28 39 -15 17 -24 26
-21 20z"/>
<path d="M3020 1026 c0 -2 8 -10 18 -17 15 -13 16 -12 3 4 -13 16 -21 21 -21
13z"/>
<path d="M3355 947 c37 -68 43 -95 23 -117 -11 -12 -10 -12 5 -1 9 7 17 23 17
34 0 19 -66 147 -76 147 -3 0 11 -29 31 -63z"/>
<path d="M2100 975 c13 -14 26 -25 28 -25 3 0 -5 11 -18 25 -13 14 -26 25 -28
25 -3 0 5 -11 18 -25z"/>
<path d="M1320 980 c0 -6 -5 -8 -12 -4 -7 4 -8 3 -4 -4 4 -6 13 -9 22 -5 8 3
27 -5 42 -18 l27 -24 -20 23 c-25 30 -55 47 -55 32z"/>
<path d="M1247 959 c7 -7 15 -10 18 -7 3 3 -2 9 -12 12 -14 6 -15 5 -6 -5z"/>
<path d="M3661 944 c0 -11 3 -14 6 -6 3 7 2 16 -1 19 -3 4 -6 -2 -5 -13z"/>
<path d="M2690 946 c0 -3 9 -10 20 -16 11 -6 20 -8 20 -6 0 3 -9 10 -20 16
-11 6 -20 8 -20 6z"/>
<path d="M2903 919 c-11 -29 -15 -31 -57 -28 -24 2 -42 1 -39 -3 2 -5 13 -8
23 -8 10 0 20 -5 22 -11 6 -18 58 12 64 37 10 38 0 47 -13 13z"/>
<path d="M1307 929 c7 -7 15 -10 18 -7 3 3 -2 9 -12 12 -14 6 -15 5 -6 -5z"/>
<path d="M1346 911 c5 -4 29 -13 54 -20 25 -7 58 -25 74 -39 25 -24 27 -24 15
-4 -8 12 -27 28 -44 36 -38 18 -111 38 -99 27z"/>
<path d="M2750 910 c8 -5 22 -9 30 -9 10 0 8 3 -5 9 -27 12 -43 12 -25 0z"/>
<path d="M3171 887 c2 -1 13 -9 24 -17 19 -14 19 -14 6 3 -7 9 -18 17 -24 17
-6 0 -8 -1 -6 -3z"/>
<path d="M2685 860 c-13 -5 -14 -9 -5 -9 8 0 24 4 35 9 13 5 14 9 5 9 -8 0
-24 -4 -35 -9z"/>
<path d="M2908 853 c6 -2 18 -2 25 0 6 3 1 5 -13 5 -14 0 -19 -2 -12 -5z"/>
<path d="M2858 833 c7 -3 16 -2 19 1 4 3 -2 6 -13 5 -11 0 -14 -3 -6 -6z"/>
<path d="M3028 833 c7 -3 16 -2 19 1 4 3 -2 6 -13 5 -11 0 -14 -3 -6 -6z"/>
<path d="M2574 814 c-18 -14 -18 -15 4 -4 12 6 22 13 22 15 0 8 -5 6 -26 -11z"/>
<path d="M2898 823 c7 -3 16 -2 19 1 4 3 -2 6 -13 5 -11 0 -14 -3 -6 -6z"/>
<path d="M2748 813 c7 -3 16 -2 19 1 4 3 -2 6 -13 5 -11 0 -14 -3 -6 -6z"/>
<path d="M2780 816 c0 -2 14 -6 30 -8 17 -3 30 -1 30 4 0 4 -13 8 -30 8 -16 0
-30 -2 -30 -4z"/>
<path d="M2938 813 c7 -3 16 -2 19 1 4 3 -2 6 -13 5 -11 0 -14 -3 -6 -6z"/>
<path d="M2975 810 c3 -5 11 -10 16 -10 6 0 7 5 4 10 -3 6 -11 10 -16 10 -6 0
-7 -4 -4 -10z"/>
<path d="M3323 813 c9 -2 23 -2 30 0 6 3 -1 5 -18 5 -16 0 -22 -2 -12 -5z"/>
<path d="M2860 806 c0 -2 11 -6 25 -8 13 -3 22 -1 19 3 -5 9 -44 13 -44 5z"/>
<path d="M2524 784 c-18 -14 -18 -15 4 -4 12 6 22 13 22 15 0 8 -5 6 -26 -11z"/>
<path d="M2625 784 c-16 -8 -41 -24 -55 -35 -27 -22 -10 -16 30 11 14 10 39
22 55 28 17 6 23 11 15 11 -8 0 -28 -6 -45 -15z"/>
<path d="M2939 787 c7 -7 14 -8 21 -1 6 6 2 10 -12 11 -16 2 -18 -1 -9 -10z"/>
<path d="M3040 796 c0 -2 7 -6 15 -10 8 -3 15 -1 15 4 0 6 -7 10 -15 10 -8 0
-15 -2 -15 -4z"/>
<path d="M2984 782 c2 -4 19 -8 38 -9 30 -1 31 -1 8 7 -33 11 -52 12 -46 2z"/>
<path d="M3095 780 c3 -5 8 -10 11 -10 2 0 4 5 4 10 0 6 -5 10 -11 10 -5 0 -7
-4 -4 -10z"/>
<path d="M3168 763 c6 -2 18 -2 25 0 6 3 1 5 -13 5 -14 0 -19 -2 -12 -5z"/>
<path d="M3210 759 c0 -5 5 -7 10 -4 6 3 10 8 10 11 0 2 -4 4 -10 4 -5 0 -10
-5 -10 -11z"/>
<path d="M2460 750 c-9 -6 -10 -10 -3 -10 6 0 15 5 18 10 8 12 4 12 -15 0z"/>
<path d="M3095 750 c4 -6 11 -8 16 -5 14 9 11 15 -7 15 -8 0 -12 -5 -9 -10z"/>
<path d="M3289 747 c6 -6 20 -5 38 1 28 9 27 9 -10 9 -22 -1 -33 -5 -28 -10z"/>
<path d="M3163 734 c0 -8 5 -13 11 -11 6 3 19 0 30 -5 12 -7 16 -7 12 0 -3 6
-3 12 1 15 5 2 2 2 -5 0 -7 -1 -21 1 -31 6 -13 8 -18 6 -18 -5z"/>
<path d="M2375 713 c-24 -10 -73 -16 -122 -17 -44 -1 -79 -5 -76 -10 10 -16
165 0 213 22 53 24 43 28 -15 5z"/>
<path d="M2490 705 c-19 -14 -31 -25 -27 -25 3 0 23 11 43 25 20 14 33 25 27
25 -5 0 -24 -11 -43 -25z"/>
<path d="M2773 723 c9 -2 23 -2 30 0 6 3 -1 5 -18 5 -16 0 -22 -2 -12 -5z"/>
<path d="M2820 719 c0 -5 12 -9 28 -9 15 0 38 -3 52 -6 18 -5 22 -4 15 4 -13
14 -95 23 -95 11z"/>
<path d="M3113 713 c9 -2 23 -2 30 0 6 3 -1 5 -18 5 -16 0 -22 -2 -12 -5z"/>
<path d="M3025 699 c-16 -5 -46 -7 -65 -5 l-35 5 35 -12 c19 -7 40 -15 45 -18
6 -4 19 -2 30 2 18 8 17 9 -4 5 -35 -7 -12 11 29 22 19 6 26 10 15 10 -11 0
-33 -4 -50 -9z"/>
<path d="M3295 700 c-3 -6 1 -7 9 -4 18 7 21 14 7 14 -6 0 -13 -4 -16 -10z"/>
<path d="M3100 689 c0 -5 5 -7 10 -4 6 3 10 8 10 11 0 2 -4 4 -10 4 -5 0 -10
-5 -10 -11z"/>
<path d="M3080 666 c-36 -8 -48 -14 -35 -17 11 -3 27 -2 35 2 8 4 31 12 50 17
49 14 16 12 -50 -2z"/>
<path d="M2400 660 c-8 -5 -10 -10 -5 -10 6 0 17 5 25 10 8 5 11 10 5 10 -5 0
-17 -5 -25 -10z"/>
<path d="M2125 650 c4 -6 11 -8 16 -5 14 9 11 15 -7 15 -8 0 -12 -5 -9 -10z"/>
<path d="M2164 653 c10 -10 49 -11 65 -3 8 5 -3 8 -28 8 -24 1 -40 -2 -37 -5z"/>
<path d="M1990 640 c-9 -6 -10 -10 -3 -10 6 0 15 5 18 10 8 12 4 12 -15 0z"/>
<path d="M2012 629 c-19 -30 -11 -32 11 -3 10 13 14 24 10 24 -5 0 -14 -9 -21
-21z"/>
<path d="M2718 643 c6 -2 18 -2 25 0 6 3 1 5 -13 5 -14 0 -19 -2 -12 -5z"/>
<path d="M2768 643 c7 -3 16 -2 19 1 4 3 -2 6 -13 5 -11 0 -14 -3 -6 -6z"/>
<path d="M2328 633 c7 -3 16 -2 19 1 4 3 -2 6 -13 5 -11 0 -14 -3 -6 -6z"/>
<path d="M2050 621 c0 -6 4 -12 8 -15 5 -3 9 1 9 9 0 8 -4 15 -9 15 -4 0 -8
-4 -8 -9z"/>
<path d="M2088 623 c6 -2 18 -2 25 0 6 3 1 5 -13 5 -14 0 -19 -2 -12 -5z"/>
<path d="M1860 610 c0 -5 5 -10 11 -10 5 0 7 5 4 10 -3 6 -8 10 -11 10 -2 0
-4 -4 -4 -10z"/>
<path d="M1064 602 c4 -7 -10 -10 -39 -8 -25 2 -43 1 -40 -2 3 -4 33 -7 66 -8
32 0 58 0 57 1 -15 12 -49 25 -44 17z"/>
<path d="M1950 606 c0 -2 7 -7 16 -10 8 -3 12 -2 9 4 -6 10 -25 14 -25 6z"/>
<path d="M930 590 c-9 -6 -10 -10 -3 -10 6 0 15 5 18 10 8 12 4 12 -15 0z"/>
<path d="M1120 595 c0 -8 29 -12 39 -5 9 5 4 8 -13 8 -14 0 -26 -2 -26 -3z"/>
<path d="M1380 590 c8 -5 20 -10 25 -10 6 0 3 5 -5 10 -8 5 -19 10 -25 10 -5
0 -3 -5 5 -10z"/>
<path d="M1546 588 c3 -4 16 -7 29 -6 30 3 23 11 -9 13 -14 0 -22 -3 -20 -7z"/>
<path d="M1645 590 c-3 -6 1 -7 9 -4 18 7 21 14 7 14 -6 0 -13 -4 -16 -10z"/>
<path d="M1880 590 c-8 -5 -12 -12 -9 -15 4 -3 12 1 19 10 14 17 11 19 -10 5z"/>
<path d="M1915 590 c3 -5 8 -10 11 -10 2 0 4 5 4 10 0 6 -5 10 -11 10 -5 0 -7
-4 -4 -10z"/>
<path d="M844 569 c-9 -10 -21 -16 -26 -13 -15 10 -60 12 -51 3 17 -17 74 -14
85 4 6 11 16 16 28 12 10 -3 21 -2 23 2 11 17 -43 10 -59 -8z"/>
<path d="M1235 579 c-4 -6 -5 -12 -2 -15 2 -3 7 2 10 11 7 17 1 20 -8 4z"/>
<path d="M1260 570 c-9 -6 -10 -10 -3 -10 6 0 15 5 18 10 8 12 4 12 -15 0z"/>
<path d="M905 560 c-2 -3 7 -7 20 -8 13 -1 26 2 29 6 2 4 -7 7 -21 7 -14 0
-26 -2 -28 -5z"/>
<path d="M1000 560 c8 -5 22 -9 30 -9 10 0 8 3 -5 9 -27 12 -43 12 -25 0z"/>
<path d="M1057 557 c4 -7 70 -4 78 5 3 2 -15 4 -39 4 -24 -1 -42 -4 -39 -9z"/>
<path d="M1290 566 c0 -2 11 -6 25 -8 13 -3 22 -1 19 3 -5 9 -44 13 -44 5z"/>
<path d="M1477 558 c2 -5 10 -8 18 -8 8 0 16 3 18 8 3 4 -5 7 -18 7 -13 0 -21
-3 -18 -7z"/>
<path d="M1556 558 c5 -8 60 -5 69 4 2 2 -13 4 -34 4 -22 -1 -37 -4 -35 -8z"/>
<path d="M1709 569 c-6 -20 -4 -158 2 -152 10 10 15 141 6 150 -4 3 -8 4 -8 2z"/>
<path d="M2360 545 c-19 -7 -28 -14 -20 -14 8 0 29 6 45 14 39 17 21 18 -25 0z"/>
<path d="M2780 498 c-36 -12 -80 -28 -98 -37 -36 -17 -92 -71 -75 -71 6 0 16
7 24 16 19 23 103 64 184 90 39 12 61 22 50 22 -11 0 -49 -9 -85 -20z"/>
<path d="M3705 418 c-126 -11 -146 -17 -164 -49 -12 -22 -12 -29 0 -55 20 -42
67 -51 183 -36 137 17 161 30 61 33 -44 1 -70 4 -57 6 12 2 20 9 17 14 -3 5 0
6 8 3 8 -3 22 3 32 12 17 17 17 18 -1 25 -13 5 -15 8 -4 8 13 1 13 2 0 11 -12
7 -7 12 20 24 19 8 28 15 20 14 -8 -1 -60 -5 -115 -10z"/>
<path d="M2975 405 c-5 -2 -21 -6 -35 -9 -36 -8 -70 -42 -70 -71 0 -14 12 -38
28 -55 23 -26 38 -33 97 -41 83 -12 207 -4 246 17 55 28 66 94 23 135 -24 23
-33 24 -152 26 -70 1 -131 1 -137 -2z"/>
<path d="M398 393 c7 -3 16 -2 19 1 4 3 -2 6 -13 5 -11 0 -14 -3 -6 -6z"/>
<path d="M465 379 c22 -4 54 -8 70 -7 22 0 19 3 -15 9 -60 10 -108 9 -55 -2z"/>
<path d="M2263 364 c-35 -7 -86 -23 -114 -35 -41 -18 -55 -20 -70 -11 -30 19
-31 14 -7 -18 l22 -31 -23 -47 c-13 -26 -28 -55 -33 -65 -8 -17 -7 -17 19 1
150 101 192 122 249 122 48 0 238 -83 288 -127 50 -42 120 -63 205 -62 l66 1
-40 13 -40 13 55 1 c30 1 60 5 67 9 10 7 -66 34 -203 74 -37 10 -92 62 -100
94 -4 14 -4 38 -2 54 4 29 -5 40 -16 21 -4 -5 -22 -5 -43 0 -56 13 -209 9
-280 -7z"/>
<path d="M607 363 c24 -2 62 -2 86 0 23 2 4 4 -43 4 -47 0 -66 -2 -43 -4z"/>
<path d="M2010 356 c0 -2 7 -7 16 -10 8 -3 12 -2 9 4 -6 10 -25 14 -25 6z"/>
<path d="M300 330 c-12 -8 -11 -10 7 -10 12 0 25 5 28 10 8 13 -15 13 -35 0z"/>
<path d="M976 294 c-20 -20 -20 -48 -1 -68 22 -22 252 -21 234 0 -9 11 -8 14
2 15 8 1 23 2 34 3 15 1 19 7 17 26 -1 13 -8 28 -15 32 -6 4 -67 8 -134 8 -97
0 -125 -3 -137 -16z m129 -12 l-20 -5 20 -8 c19 -7 19 -8 -2 -8 -23 -1 -30 9
-16 22 3 4 13 6 22 6 11 -1 9 -3 -4 -7z m135 -7 c0 -9 -9 -15 -21 -15 -18 0
-19 2 -9 15 7 8 16 15 21 15 5 0 9 -7 9 -15z m-95 -35 c18 -8 18 -9 -5 -8 -14
1 -31 -1 -39 -3 -7 -2 -16 2 -18 9 -5 14 31 15 62 2z"/>
<path d="M1514 298 c-4 -7 -3 -8 4 -4 7 4 12 2 12 -3 0 -6 -7 -11 -15 -11 -8
0 -15 -4 -15 -10 0 -5 5 -10 11 -10 5 0 8 -4 5 -9 -3 -4 0 -16 7 -25 11 -15
33 -18 156 -19 l144 -2 3 28 c2 22 -2 27 -19 28 -17 1 -18 2 -4 6 9 2 17 9 17
14 0 17 -30 22 -47 8 -15 -12 -16 -12 -10 4 5 14 0 17 -31 17 -35 0 -38 -2
-36 -27 0 -16 -4 -31 -10 -35 -7 -5 -4 -8 7 -8 9 0 17 -6 17 -13 0 -10 -14
-14 -47 -13 -42 1 -48 4 -51 24 -3 19 1 22 35 24 37 1 37 1 6 5 -35 5 -40 12
-21 31 9 9 -2 12 -49 12 -36 0 -65 -5 -69 -12z"/>
<path d="M800 186 c0 -2 7 -7 16 -10 8 -3 12 -2 9 4 -6 10 -25 14 -25 6z"/>
<path d="M3405 165 c11 -8 31 -24 44 -37 14 -13 19 -16 12 -6 -9 13 -9 17 1
21 9 3 6 7 -7 12 -11 3 -28 11 -37 16 -27 14 -36 10 -13 -6z"/>
<path d="M3784 135 c-18 -15 -18 -15 5 -13 14 2 26 9 29 16 5 17 -10 15 -34
-3z"/>
</g>
</svg>
